<?xml version="1.0" encoding="UTF-8"?>
<svg width="18px" height="45px" viewBox="0 0 18 45" version="1.1" xmlns="http://www.w3.org/2000/svg" xmlns:xlink="http://www.w3.org/1999/xlink">
    <!-- Generator: Sketch 63.1 (92452) - https://sketch.com -->
    <title>Group 2</title>
    <desc>Created with Sketch.</desc>
    <g id="Direction" stroke="none" stroke-width="1" fill="none" fill-rule="evenodd">
        <g id="1.08-Navigation-Hover" transform="translate(-1391.000000, -17.000000)" fill="#FFFFFF">
            <g id="Group">
                <g id="Group-2" transform="translate(1391.000000, 17.000000)">
                    <path d="M13.4542915,36.8440623 C14.8863867,35.4236482 15.7754257,33.455152 15.7754257,31.2827768 L15.7754257,31.2804729 L15.7754257,15.5848421 L15.7754257,15.5824947 C15.7754257,11.2490904 12.2437457,7.734375 7.88740689,7.734375 C3.53115546,7.734375 0,11.2490904 0,15.5824947 L0,31.2827768 C0,35.6169201 3.53115546,39.1319398 7.88740689,39.1319398 C8.02844856,39.1319398 8.16634334,39.1276362 8.3047189,39.1206808 L14.2115546,45 L17.9296875,41.298968 L13.4542915,36.8440623 Z M5.25800902,33.8985994 L10.5167173,33.8985994 L10.5167173,12.9666721 L5.25800902,12.9666721 L5.25800902,33.8985994 Z" id="Fill-1"></path>
                    <polygon id="Fill-4" points="5.2734375 5.625 10.8984375 5.625 10.8984375 0 5.2734375 0"></polygon>
                </g>
            </g>
        </g>
    </g>
</svg>